<?xml version="1.0" encoding="UTF-8" standalone="no"?>
<!-- Created with Inkscape (http://www.inkscape.org/) -->

<svg
   xmlns:dc="http://purl.org/dc/elements/1.1/"
   xmlns:cc="http://creativecommons.org/ns#"
   xmlns:rdf="http://www.w3.org/1999/02/22-rdf-syntax-ns#"
   xmlns:svg="http://www.w3.org/2000/svg"
   xmlns="http://www.w3.org/2000/svg"
   xmlns:sodipodi="http://sodipodi.sourceforge.net/DTD/sodipodi-0.dtd"
   xmlns:inkscape="http://www.inkscape.org/namespaces/inkscape"
   width="744.09448819"
   height="1052.3622047"
   id="svg2"
   version="1.1"
   inkscape:version="0.48.4 r9939"
   sodipodi:docname="logo-wilskracht.svg">
  <defs
     id="defs4" />
  <sodipodi:namedview
     id="base"
     pagecolor="#ffffff"
     bordercolor="#666666"
     borderopacity="1.0"
     inkscape:pageopacity="0.0"
     inkscape:pageshadow="2"
     inkscape:zoom="0.98994949"
     inkscape:cx="557.29572"
     inkscape:cy="590.66032"
     inkscape:document-units="px"
     inkscape:current-layer="layer1"
     showgrid="false"
     inkscape:window-width="1920"
     inkscape:window-height="1017"
     inkscape:window-x="-8"
     inkscape:window-y="-8"
     inkscape:window-maximized="1" />
  <metadata
     id="metadata7">
    <rdf:RDF>
      <cc:Work
         rdf:about="">
        <dc:format>image/svg+xml</dc:format>
        <dc:type
           rdf:resource="http://purl.org/dc/dcmitype/StillImage" />
        <dc:title></dc:title>
      </cc:Work>
    </rdf:RDF>
  </metadata>
  <g
     inkscape:label="Layer 1"
     inkscape:groupmode="layer"
     id="layer1">
    <g
       id="g4229"
       inkscape:export-filename="G:\wilskracht\img\logo.png"
       inkscape:export-xdpi="90"
       inkscape:export-ydpi="90">
      <g
         transform="matrix(5.0352448,0,0,5.3048042,-1322.6792,-2107.7322)"
         id="g4060">
        <path
           style="fill:none;stroke:#000000;stroke-width:0.19348845px;stroke-linecap:butt;stroke-linejoin:miter;stroke-opacity:1"
           d="m 345.53572,517.54076 c 0,0 1.60714,-5.53571 7.85714,-3.92857 6.25,1.60714 20.35715,4.64286 27.14286,-13.03572"
           id="path4058"
           inkscape:connector-curvature="0"
           sodipodi:nodetypes="csc" />
        <g
           id="g4032"
           transform="translate(111.02949,-3.6565463)">
          <path
             sodipodi:nodetypes="ccssccsccssccccccscscscsccssccccccc"
             inkscape:connector-curvature="0"
             id="path3819"
             d="m 212.85714,454.50504 -19.46428,-0.17857 c 0,0 2.5,5.35714 5.53571,5.17857 3.03571,-0.17857 1.96429,0.71428 4.10714,0 2.14286,-0.71429 1.07143,4.10714 1.07143,4.10714 l 2.14286,19.82143 c 0,0 0.19554,2.90884 4.28571,11.07143 1.61363,3.22026 5,8.21428 5,8.21428 l -1.25,37.5 c 0,0 -2.05884,-0.68977 -3.94101,-0.22946 -1.64769,0.40296 -3.21339,1.00306 -4.45185,2.72946 -2.05294,2.86177 2.85714,3.21429 2.85714,3.21429 l 3.57143,0.53572 8.2143,-0.17858 4.82142,-25.89286 6.07143,26.07143 L 245,546.64789 c 0,0 3.57143,0 1.78571,-3.21428 -1.78571,-3.21429 -6.60714,-2.32143 -6.60714,-2.32143 0,0 -3.21429,-1.60714 -3.03571,-3.75 0.17857,-2.14286 -1.07143,-34.46429 -1.07143,-34.46429 0,0 9.09524,-17.79319 10.53571,-25.53571 1.42858,-7.67857 5.89286,-17.5 5.89286,-17.5 0,0 7.85715,0.71429 9.10715,-1.07143 1.25,-1.78571 0,-4.64285 0,-4.64285 l -19.28572,-10e-6 c 0,0 3.57143,2.32143 2.32143,4.82143 -1.25,2.5 0.89285,-1.42857 -0.17858,0.17858 C 243.39285,460.75504 232.5,491.46933 232.5,491.46933 l -2.67857,-4.82144 -8.03572,-0.17856 -3.92857,4.64285 -6.96428,-32.14286 0.89285,-3.57143 z"
             style="fill:#b8b8cb;fill-opacity:1;stroke:#000000;stroke-width:0.19348845px;stroke-linecap:butt;stroke-linejoin:miter;stroke-opacity:1" />
          <g
             transform="translate(-83.463854,-3.4092648)"
             id="g4008">
            <path
               style="fill:#b8b8cb;fill-opacity:1;stroke:#000000;stroke-width:0.19348845px;stroke-linecap:butt;stroke-linejoin:miter;stroke-opacity:1"
               d="m 319.64285,487.8979 c 2.14286,1.25 6.42857,0.35714 6.42857,0.35714 2.85715,-1.25 8.57143,-11.96428 6.78572,-16.78571 -1.78571,-4.82143 -2.5,-5.17857 -8.92857,-5.89286 -6.42857,-0.71429 -7.67857,5 -7.67857,5 0,0 -2.67858,-2.32143 -6.96429,-2.14286 -4.28571,0.17858 -7.32143,2.32143 -7.32143,2.32143 0,0 -1.42857,-5.35714 -6.78571,-5.35714 -5.35715,0 -8.20971,1.07383 -10.17857,4.82143 -1.96713,3.74431 1.13457,9.59059 6.07143,17.14286 0,0 6.60714,2.14285 8.21428,0.35714"
               id="path3821"
               inkscape:connector-curvature="0"
               sodipodi:nodetypes="csscscssccc" />
            <path
               style="fill:#b8b8cb;fill-opacity:1;stroke:#000000;stroke-width:0.19348845px;stroke-linecap:butt;stroke-linejoin:miter;stroke-opacity:1"
               d="m 319.82143,488.25504 c 0,0 -4.64286,18.92857 -10.71429,17.85714 -6.07143,-1.07143 -9.82143,-17.85714 -9.82143,-17.85714"
               id="path3825"
               inkscape:connector-curvature="0"
               sodipodi:nodetypes="csc" />
            <path
               sodipodi:type="arc"
               style="fill:#ff6482;fill-opacity:1;stroke:none"
               id="path3927"
               sodipodi:cx="270"
               sodipodi:cy="493.79074"
               sodipodi:rx="3.9285715"
               sodipodi:ry="4.1071429"
               d="m 273.92857,493.79074 c 0,2.26831 -1.75888,4.10714 -3.92857,4.10714 -2.16969,0 -3.92857,-1.83883 -3.92857,-4.10714 0,-2.26831 1.75888,-4.10714 3.92857,-4.10714 2.16969,0 3.92857,1.83883 3.92857,4.10714 z"
               transform="matrix(1.090909,0,0,1.3478261,1.8831178,-189.61043)" />
            <path
               style="fill:#b8b8cb;fill-opacity:1;stroke:#000000;stroke-width:0.19348845px;stroke-linecap:butt;stroke-linejoin:miter;stroke-opacity:1"
               d="m 299.46428,488.61219 c 0,0 -2.93493,-5.47029 -1.78571,-10.89286 1.06017,-5.0024 4.28571,-6.78572 4.28571,-6.78572"
               id="path3829"
               inkscape:connector-curvature="0"
               sodipodi:nodetypes="csc" />
            <path
               sodipodi:type="arc"
               style="fill:#ff6482;fill-opacity:1;stroke:none"
               id="path3927-8"
               sodipodi:cx="270"
               sodipodi:cy="493.79074"
               sodipodi:rx="3.9285715"
               sodipodi:ry="4.1071429"
               d="m 273.92857,493.79074 c 0,2.26831 -1.75888,4.10714 -3.92857,4.10714 -2.16969,0 -3.92857,-1.83883 -3.92857,-4.10714 0,-2.26831 1.75888,-4.10714 3.92857,-4.10714 2.16969,0 3.92857,1.83883 3.92857,4.10714 z"
               transform="matrix(1.090909,0,0,1.3478261,28.847428,-189.43187)" />
            <path
               style="fill:#b8b8cb;fill-opacity:1;stroke:#000000;stroke-width:0.19348845px;stroke-linecap:butt;stroke-linejoin:miter;stroke-opacity:1"
               d="m 319.50473,488.88004 c 0,0 2.71565,-6.89886 0.67337,-12.32143 -1.88402,-5.0024 -4.04468,-6.07143 -4.04468,-6.07143"
               id="path3829-6"
               inkscape:connector-curvature="0"
               sodipodi:nodetypes="csc" />
            <path
               style="fill:#b8b8cb;fill-opacity:1;stroke:none"
               d="m 308.12913,505.04693 c -2.04458,-1.01886 -4.17453,-4.46319 -6.20453,-10.03329 -0.7278,-1.99703 -1.85466,-5.82512 -1.85466,-6.30055 0,-0.33112 0.26993,-0.34084 9.46429,-0.34084 9.25088,0 9.46428,0.008 9.46428,0.34677 0,0.19072 -0.2876,1.29563 -0.63911,2.45536 -2.12518,7.01148 -4.77591,12.13867 -7.10567,13.74419 -1.07272,0.73924 -1.83581,0.77059 -3.1246,0.12836 z"
               id="path3851"
               inkscape:connector-curvature="0" />
            <path
               style="fill:#b8b8cb;fill-opacity:1;stroke:none"
               d="m 308.12913,505.04693 c -2.04458,-1.01886 -4.17453,-4.46319 -6.20453,-10.03329 -0.7278,-1.99703 -1.85466,-5.82512 -1.85466,-6.30055 0,-0.33112 0.26993,-0.34084 9.46429,-0.34084 9.25088,0 9.46428,0.008 9.46428,0.34677 0,0.19072 -0.2876,1.29563 -0.63911,2.45536 -2.12518,7.01148 -4.77591,12.13867 -7.10567,13.74419 -1.07272,0.73924 -1.83581,0.77059 -3.1246,0.12836 z"
               id="path3853"
               inkscape:connector-curvature="0" />
            <path
               style="fill:#b8b8cb;fill-opacity:1;stroke:none"
               d="m 299.74233,487.98622 c -0.0537,-0.12713 -0.0928,-0.23417 -0.087,-0.23787 0.006,-0.004 3.83768,0.0287 8.51514,0.0719 4.67745,0.0433 9.09019,0.08 9.80609,0.0816 l 1.30162,0.003 -0.048,0.15625 -0.048,0.15625 -9.67115,0 -9.67115,0 -0.0977,-0.23114 z"
               id="path3855"
               inkscape:connector-curvature="0" />
            <path
               style="fill:#b8b8cb;fill-opacity:1;stroke:none"
               d="m 309.21959,505.59912 c -0.81093,-0.16888 -1.56657,-0.60239 -2.35232,-1.34951 -2.16246,-2.05613 -4.32634,-6.4991 -6.12475,-12.57554 -0.38319,-1.2947 -0.83907,-3.03519 -0.84987,-3.24465 l -0.009,-0.16741 9.6343,0 c 5.4996,0 9.6343,0.0168 9.6343,0.0392 0,0.0215 -0.0301,0.11131 -0.067,0.19946 -0.0848,0.20304 -0.0842,0.25242 0.003,0.25242 0.0462,0 0.0616,0.0265 0.0454,0.0781 -0.0135,0.043 -0.20429,0.70089 -0.42399,1.46206 -1.70515,5.90747 -3.81518,10.6888 -5.82213,13.19292 -0.43848,0.54709 -1.15951,1.25317 -1.55167,1.51948 -0.35537,0.24133 -0.93589,0.51021 -1.23723,0.57307 -0.22874,0.0477 -0.69628,0.0585 -0.8795,0.0204 l 0,0 z"
               id="path3857"
               inkscape:connector-curvature="0" />
            <path
               style="fill:#b8b8cb;fill-opacity:1;stroke:none"
               d="m 304.67718,488.22853 c 2.65792,-0.006 7.00725,-0.006 9.66517,0 2.65793,0.006 0.48326,0.0116 -4.83259,0.0116 -5.31584,0 -7.49051,-0.005 -4.83258,-0.0116 z"
               id="path3859"
               inkscape:connector-curvature="0" />
            <path
               style="fill:#b8b8cb;fill-opacity:1;stroke:none"
               d="m 299.84611,488.17519 c -0.0143,-0.0232 -0.0548,-0.12365 -0.0899,-0.22322 l -0.0639,-0.18104 0.52257,10e-4 c 0.28742,5.4e-4 3.73686,0.0303 7.66543,0.066 3.92857,0.0358 8.09208,0.0655 9.25223,0.066 1.27789,5.8e-4 2.10938,0.0174 2.10938,0.0427 0,0.023 -0.0196,0.0933 -0.0435,0.15625 l -0.0435,0.11451 -9.64133,0 c -6.00336,0 -9.65116,-0.0159 -9.66739,-0.0422 z"
               id="path3861"
               inkscape:connector-curvature="0" />
            <path
               style="fill:#b8b8cb;fill-opacity:1;stroke:none"
               id="path3915"
               d="m 301.87081,487.96236 c 0.13644,-0.0162 0.27036,-0.0482 0.4068,-0.0661 0.10088,-0.0123 0.20255,-0.0141 0.30404,-0.015 0.0894,-2.9e-4 0.17875,1.1e-4 0.26812,2.9e-4 0.0908,2.5e-4 0.18152,0 0.27228,4.9e-4 0.10075,2.5e-4 0.2015,2e-5 0.30225,-1e-4 0.0942,-0.009 0.18436,0.009 0.27653,0.0246 0.0877,0.0143 0.17651,0.0173 0.26513,0.0193 0.0887,0.0199 0.17835,0.033 0.26893,0.04 0.0989,10e-4 0.19452,0.0256 0.29272,0.0362 0.13103,0.008 0.2568,0.0472 0.3849,0.0724 0.14397,0.0181 0.28639,0.0452 0.43072,0.0607 0.1397,0.0136 0.28015,0.0147 0.42037,0.0159 0.1232,10e-4 0.24514,0.0238 0.36792,0.0344 0.10841,0.008 0.21715,0.009 0.32579,0.009 0.1042,7.1e-4 0.2084,1.8e-4 0.31259,-9e-5 0.0932,0.009 0.18173,-0.009 0.27272,-0.0249 0.0885,-0.0183 0.1802,-0.008 0.26799,-0.0279 0.0884,-0.0211 0.17886,-0.0292 0.26937,-0.0339 0.0897,-0.004 0.17943,-0.003 0.26916,-0.003 0.0934,-8e-5 0.18675,4.3e-4 0.28013,6.7e-4 0.11283,8.1e-4 0.22566,-2e-5 0.3385,2.8e-4 0.11353,1e-5 0.22707,1.6e-4 0.34061,-7e-5 0.0969,-2.4e-4 0.19376,-3.7e-4 0.29064,-4.4e-4 0.0894,-5e-5 0.17891,-5e-5 0.26836,-5e-5 0.0892,0 0.17836,0 0.26753,0 0.0902,0.003 0.18112,-0.008 0.27011,0.009 0.0981,0.017 0.19587,0.031 0.29367,0.0493 0.11407,0.0256 0.23226,0.0175 0.34656,0.0385 0.0831,0.0252 0.17202,0.0202 0.25472,0.044 0.0729,0.0245 0.14936,0.0312 0.22563,0.0355 0.0869,0.004 0.17382,0.003 0.26074,0.003 0.0894,-1.3e-4 0.17871,-2.8e-4 0.26807,-3.5e-4 0.0893,-7e-5 0.17865,-7e-5 0.26798,-8e-5 0.0786,-0.003 0.15436,-0.0274 0.23312,-0.0363 0.0857,-0.008 0.17185,-0.008 0.25784,-0.009 0.0893,-2.5e-4 0.17853,-10e-6 0.2678,1e-4 0.0787,-0.002 0.15448,-0.0273 0.23328,-0.0361 0.075,-0.0118 0.14654,-0.036 0.22304,-0.045 0.0557,-0.0103 0.11382,-3.5e-4 0.1695,-0.008 0.0247,-0.003 0.048,-0.0128 0.0721,-0.019 0.0762,-0.0233 0.15833,-0.0107 0.23362,-0.0341 0.0753,-0.0243 0.15432,-0.0298 0.23276,-0.0339 0.088,-0.003 0.17601,-0.003 0.26402,-0.003 0.0911,0.002 0.16346,0.004 0.25205,-0.0179 0.0791,-0.0186 0.16055,-0.0221 0.24146,-0.0249 0.0885,-0.002 0.17699,-0.002 0.26549,-0.002 0.0894,1.3e-4 0.17875,2.3e-4 0.26812,2.8e-4 0.0893,5e-5 0.17861,5e-5 0.26791,5e-5 0.0893,0 0.17857,0 0.26786,0 0.0867,-0.009 0.16791,0.008 0.25192,0.0253 0.0796,0.0147 0.16067,0.0169 0.24135,0.0187 0.0885,10e-4 0.1769,10e-4 0.26536,9.4e-4 0.0894,-1.4e-4 0.17873,-2e-4 0.2681,-2.4e-4 0.0893,-3e-5 0.17861,-3e-5 0.26791,-3e-5 0.0893,0 0.17857,0 0.26786,0 0.0893,0 0.17857,0 0.26786,0 0.075,-0.0224 0.15177,-0.0334 0.22953,-0.0395 0.0798,0.004 0.15342,-0.0251 0.23128,-0.0374 0.0382,7e-4 0.071,-0.0169 0.10628,-0.0286 0,0 -0.52527,0.40585 -0.52527,0.40585 l 0,0 c -0.0365,0.0101 -0.0731,0.0168 -0.1105,0.0224 -0.0776,0.0165 -0.15442,0.0311 -0.2341,0.033 -0.0779,0.0102 -0.15434,0.0316 -0.23307,0.0336 -0.0893,0 -0.17857,0 -0.26786,0 -0.0893,-1e-5 -0.17857,-1e-5 -0.26785,-1e-5 -0.0893,1e-5 -0.1786,1e-5 -0.26789,6e-5 -0.0894,6e-5 -0.17874,1.7e-4 -0.2681,2.5e-4 -0.089,0 -0.17793,2.2e-4 -0.26684,-0.003 -0.0833,-0.004 -0.16678,-0.009 -0.24846,-0.0272 -0.0807,-0.0161 -0.16114,-0.0181 -0.24336,-0.0152 -0.0893,10e-6 -0.17857,10e-6 -0.26786,0 -0.0893,0 -0.17862,-1e-5 -0.26793,-8e-5 -0.0894,-8e-5 -0.17872,-2.3e-4 -0.26809,-2.2e-4 -0.088,1.6e-4 -0.17596,1e-4 -0.26382,0.005 -0.0796,0.005 -0.15855,0.0149 -0.23636,0.033 -0.0857,0.0126 -0.17244,0.005 -0.25877,0.007 -0.0872,3.4e-4 -0.17456,4.4e-4 -0.26158,0.007 -0.0773,0.008 -0.15295,0.0222 -0.22837,0.0407 -0.0783,0.008 -0.15665,0.0153 -0.23314,0.0348 -0.0806,0.0137 -0.16307,0.009 -0.24369,0.0236 -0.0747,0.0144 -0.14718,0.0391 -0.22358,0.0441 -0.079,0.0132 -0.15711,0.0345 -0.23809,0.0282 -0.0891,-1e-4 -0.17825,-3.8e-4 -0.26737,6.3e-4 -0.0847,10e-4 -0.16958,0.003 -0.25345,0.0158 -0.079,0.0132 -0.15698,0.0346 -0.2379,0.0284 -0.0893,1e-5 -0.17862,3e-5 -0.26794,1.2e-4 -0.0894,1e-4 -0.17878,3.1e-4 -0.26818,2.4e-4 -0.088,-3e-4 -0.17618,-3.3e-4 -0.26403,-0.007 -0.0785,-0.007 -0.15572,-0.0212 -0.23165,-0.043 -0.0836,-0.0128 -0.16746,-0.0234 -0.25024,-0.0413 -0.11561,-0.0131 -0.23252,-0.0162 -0.34672,-0.0409 -0.0974,-0.0172 -0.19556,-0.0288 -0.29316,-0.0447 -0.0884,-0.004 -0.17704,-0.001 -0.26556,-0.002 -0.0892,0 -0.17836,0 -0.26754,0 -0.0894,0 -0.17882,0 -0.26822,-4e-5 -0.0965,-7e-5 -0.19296,-2e-4 -0.28944,-4.4e-4 -0.11347,-2.3e-4 -0.22693,-8e-5 -0.3404,-8e-5 -0.11303,2.9e-4 -0.22606,-5.7e-4 -0.33909,9e-5 -0.0937,9e-5 -0.18734,2.6e-4 -0.28101,1.8e-4 -0.0889,3.5e-4 -0.17785,6.3e-4 -0.26655,0.007 -0.0895,0.008 -0.17781,0.0218 -0.26607,0.0382 -0.0893,0.008 -0.17911,0.0114 -0.26732,0.0287 -0.0926,0.0153 -0.18493,0.0194 -0.27875,0.0158 -0.10431,-5e-5 -0.20862,-10e-5 -0.31293,-5.7e-4 -0.10953,-0.002 -0.21914,-0.005 -0.32828,-0.0146 -0.12078,-0.0129 -0.24129,-0.0331 -0.36311,-0.031 -0.14136,-0.002 -0.283,-0.006 -0.42354,-0.022 -0.14536,-0.0182 -0.28997,-0.0424 -0.4347,-0.0648 -0.12675,-0.0271 -0.25282,-0.0591 -0.3828,-0.0669 -0.0979,-0.0122 -0.19495,-0.0305 -0.29384,-0.0336 -0.0893,-0.01 -0.17718,-0.0286 -0.26659,-0.0367 -0.0905,-0.004 -0.18096,-0.0102 -0.27019,-0.0266 -0.0896,-0.0149 -0.17892,-0.0195 -0.26983,-0.0159 -0.10066,-1.1e-4 -0.20131,-3.4e-4 -0.30197,-1.3e-4 -0.091,4.2e-4 -0.18205,8e-5 -0.27307,-6e-5 -0.0891,-1.9e-4 -0.17823,-6.4e-4 -0.26734,4.3e-4 -0.0993,0.002 -0.19864,0.006 -0.29704,0.0201 -0.13699,0.0203 -0.27228,0.0505 -0.40981,0.0672 0,0 0.53118,-0.3961 0.53118,-0.3961 z"
               inkscape:connector-curvature="0" />
            <path
               style="fill:#b8b8cb;fill-opacity:1;stroke:none"
               id="path3917"
               d="m 315.94169,488.45843 c -0.1359,0.0142 -0.27209,0.0249 -0.40857,0.0314 -0.10077,0.004 -0.20164,0.005 -0.30249,0.005 -0.0981,-4e-5 -0.19621,-5.5e-4 -0.29432,-5.5e-4 -0.10785,2.5e-4 -0.21569,-4.1e-4 -0.32353,-4.8e-4 -0.11941,0.002 -0.23754,0.0249 -0.35683,0.0347 -0.11814,0.009 -0.23669,0.009 -0.35511,0.01 -0.11494,6.4e-4 -0.22988,2.4e-4 -0.34483,3.6e-4 -0.10702,5.5e-4 -0.21403,-3e-4 -0.32105,-4.4e-4 -0.10698,6e-5 -0.21396,4e-4 -0.32094,5.7e-4 -0.0967,-0.007 -0.19766,-0.0183 -0.29174,-0.0438 -0.0851,-0.0233 -0.17138,-0.0374 -0.25669,-0.0596 -0.0852,-0.0213 -0.17297,-0.0262 -0.26036,-0.0292 -0.0889,-0.002 -0.17789,-0.002 -0.26683,-10e-4 -0.0789,0.0249 -0.16001,0.0337 -0.24213,0.0391 -0.0967,0.005 -0.19355,0.006 -0.29035,0.006 -0.0905,1.2e-4 -0.18091,-6e-5 -0.27136,-1.5e-4 -0.0774,-0.0222 -0.15885,-0.0258 -0.23582,-0.0481 -0.10112,-0.0186 -0.19806,-0.0521 -0.29961,-0.0688 -0.10193,-0.0145 -0.20499,-0.0166 -0.30777,-0.0177 -0.0909,-0.0182 -0.18238,-0.0318 -0.27486,-0.0388 -0.10942,-0.006 -0.21904,-0.006 -0.32859,-0.006 -0.0979,1.5e-4 -0.19582,5.1e-4 -0.29372,6.8e-4 -0.0896,1.5e-4 -0.17916,1.6e-4 -0.26874,1.7e-4 -0.0892,0 -0.17834,0 -0.26751,0 -0.0876,0.0201 -0.17644,0.0322 -0.26597,0.039 -0.0897,0.006 -0.17971,0.006 -0.2696,0.006 -0.0771,-0.0189 -0.15461,-0.0327 -0.23371,-0.0394 -0.0874,-0.0279 -0.17068,-0.0633 -0.26146,-0.0807 -0.0734,-0.0321 -0.15054,-0.0469 -0.22978,-0.0541 -0.087,-0.01 -0.17202,-0.0316 -0.25954,-0.041 -0.0952,2.5e-4 -0.18698,-0.0191 -0.28058,-0.0331 -0.097,-0.0296 -0.19598,-0.0487 -0.29677,-0.0584 -0.0811,-0.007 -0.15851,-0.0329 -0.23971,-0.0426 -0.0849,10e-4 -0.16534,-0.0187 -0.24821,-0.0333 -0.0758,-0.0325 -0.15482,-0.0497 -0.23642,-0.0582 -0.086,-0.007 -0.17232,-0.006 -0.25852,-0.007 -0.0892,9e-5 -0.17851,3.4e-4 -0.26777,4.7e-4 -0.0981,0.005 -0.1937,-10e-4 -0.29038,-0.0167 -0.10213,-0.0179 -0.20561,-0.0232 -0.30904,-0.0264 -0.0999,10e-4 -0.19715,-9.3e-4 -0.29533,-0.0188 -0.0882,-0.0171 -0.1778,-0.0226 -0.26735,-0.0257 -0.0889,-0.002 -0.17778,-0.002 -0.26666,-0.002 -0.0893,1.3e-4 -0.17853,2.3e-4 -0.2678,2.8e-4 -0.0959,2.3e-4 -0.19172,-3.1e-4 -0.28759,-3.2e-4 -0.0971,9e-5 -0.19414,2.2e-4 -0.29121,3e-4 -0.0899,5e-5 -0.17981,6e-5 -0.26972,6e-5 -0.0892,1e-5 -0.1784,1e-5 -0.26761,0 -0.0999,-3.3e-4 -0.19987,-3.8e-4 -0.2998,-2.6e-4 -0.0935,1.3e-4 -0.18693,2e-4 -0.2804,2.4e-4 -0.0861,4.3e-4 -0.17213,-7.4e-4 -0.25819,5.4e-4 -0.24493,0.008 -0.26714,0.1346 0.54024,-0.39074 0.006,-0.004 0.11472,9.8e-4 0.12634,0.001 0.11648,7.9e-4 0.23296,7.6e-4 0.34944,4.9e-4 0.0991,-2.8e-4 0.19814,-4.5e-4 0.29721,-5.4e-4 0.10164,5.4e-4 0.20328,2.6e-4 0.30491,1.3e-4 0.0986,-3.3e-4 0.19714,1.9e-4 0.29571,1.8e-4 0.0971,-10e-5 0.1941,-2.3e-4 0.29114,-3.1e-4 0.10196,5.5e-4 0.20391,2.7e-4 0.30586,1.4e-4 0.092,-1.3e-4 0.1841,-1.7e-4 0.27614,-1.9e-4 0.0893,-2e-5 0.17853,-2e-5 0.26779,-2e-5 0.0892,10e-6 0.17848,10e-6 0.26772,10e-6 0.0893,0 0.17857,0 0.26785,0 0.0934,-2.1e-4 0.18672,1.8e-4 0.28009,3.5e-4 0.12348,3e-4 0.24696,4.8e-4 0.37045,9.2e-4 0.16854,0.0191 0.33754,0.0313 0.50696,0.0386 0.18725,0.008 0.37476,0.002 0.56176,0.0145 0.19702,0.0174 0.39445,0.0276 0.59211,0.0333 0.17168,0.0172 0.3433,0.0331 0.51566,0.0414 0.12986,0.005 0.25788,0.0299 0.38748,0.0407 0.10985,0.008 0.22004,0.009 0.33013,0.009 0.10196,-1.4e-4 0.20392,-1.8e-4 0.30588,-1.8e-4 0.10361,-3.7e-4 0.20721,-2.1e-4 0.31082,-1.2e-4 0.10417,-2.8e-4 0.20833,-1e-4 0.3125,-1e-5 0.1001,-5e-5 0.2002,-2.5e-4 0.3003,-3.5e-4 0.0888,-0.0196 0.17848,-0.0322 0.26904,-0.0392 0.0744,-0.0279 0.15224,-0.0391 0.23094,-0.0455 0.087,-0.005 0.17421,-0.005 0.26133,-0.005 0.0893,6e-5 0.17867,2.6e-4 0.26801,3.6e-4 0.0893,9e-5 0.17865,10e-5 0.26797,1.1e-4 0.0918,-0.007 0.18043,0.0183 0.27069,0.0309 0.0971,0.007 0.191,0.0315 0.28748,0.0443 0.091,9e-4 0.17671,0.0304 0.26561,0.0455 0.0824,0.0116 0.16586,0.0124 0.24896,0.0134 0.0888,5.6e-4 0.17755,2.4e-4 0.26632,10e-5 0.091,-8e-5 0.18203,-4.1e-4 0.27304,4e-5 0.10467,-0.007 0.20641,0.0183 0.30969,0.0304 0.1081,0.0114 0.21686,0.0132 0.32545,0.0143 0.11964,0.001 0.23929,8.9e-4 0.35893,4.7e-4 0.0985,-4.2e-4 0.19702,-6.4e-4 0.29552,-7.5e-4 0.0895,-8e-5 0.17892,-7e-5 0.26838,-7e-5 0.0875,-0.0202 0.1762,-0.0322 0.26561,-0.0391 0.0985,-0.006 0.19734,-0.005 0.29602,-0.006 0.0952,-2.1e-4 0.19036,-1.1e-4 0.28553,-7e-5 0.0896,5e-5 0.17916,6e-5 0.26873,7e-5 0.0892,0 0.17843,0 0.26764,0 0.0893,0 0.17855,0 0.26783,0 0.0893,0 0.17857,0 0.26786,0 0.0924,10e-4 0.18262,0.0256 0.27453,0.0357 0.0845,0.0149 0.15811,0.0584 0.2405,0.08 0.0805,0.0168 0.16311,0.0175 0.24498,0.0186 0.10092,10e-4 0.20184,4.9e-4 0.30276,1.3e-4 0.0922,-3.5e-4 0.18443,-4.5e-4 0.27665,-5.1e-4 0.0893,-4e-5 0.17858,-4e-5 0.26787,-4e-5 0.0801,0.002 0.14664,-0.044 0.22358,-0.008 0.0751,0.0507 0.0985,0.13374 0.11348,0.21829 0.0145,0.0862 0.0113,0.17113 -0.005,0.25641 -0.007,0.0383 -0.0135,0.0768 -0.021,0.11516 0,0 -0.5992,0.2853 -0.5992,0.2853 l 0,0 c 0.0136,-0.0364 0.0179,-0.0725 0.0233,-0.11102 0.0163,-0.079 0.0324,-0.15435 0.0164,-0.23564 -0.008,-0.0561 -0.0139,-0.13106 -0.0761,-0.15206 -0.0705,0.003 -0.13924,0.031 -0.21106,0.0207 -0.0893,1e-5 -0.17853,1e-5 -0.2678,3e-5 -0.092,4e-5 -0.18404,1.1e-4 -0.27606,2.2e-4 -0.1015,9e-5 -0.203,4.2e-4 -0.30449,-10e-4 -0.086,-0.003 -0.17289,-0.007 -0.25578,-0.0328 -0.0773,-0.0262 -0.15096,-0.0639 -0.23357,-0.0713 -0.0895,-0.0127 -0.17853,-0.0342 -0.26958,-0.029 -0.0893,0 -0.17857,0 -0.26786,0 -0.0893,0 -0.17855,0 -0.26783,0 -0.0892,0 -0.17843,0 -0.26765,-10e-6 -0.0896,-2e-5 -0.17909,-6e-5 -0.26864,-2e-4 -0.0948,-1.6e-4 -0.18968,-4.8e-4 -0.28452,-1.6e-4 -0.0979,6.7e-4 -0.19591,10e-4 -0.29341,0.011 -0.09,0.0101 -0.17878,0.0301 -0.26932,0.034 -0.0894,1e-5 -0.17881,1e-5 -0.26821,-2e-5 -0.098,-4e-5 -0.196,-1.1e-4 -0.29401,-3.1e-4 -0.11993,-2.2e-4 -0.23987,8e-5 -0.3598,-0.001 -0.11018,-0.002 -0.2205,-0.006 -0.3299,-0.02 -0.10148,-0.0136 -0.20237,-0.0306 -0.30532,-0.0233 -0.0912,5.1e-4 -0.18246,3e-4 -0.2737,5.3e-4 -0.0891,1.2e-4 -0.17816,4.7e-4 -0.26723,-0.001 -0.0856,-0.002 -0.17168,-0.005 -0.25596,-0.0222 -0.087,-0.0184 -0.17314,-0.0385 -0.26223,-0.0443 -0.0962,-0.0151 -0.19164,-0.0344 -0.28866,-0.0438 -0.088,-0.014 -0.1754,-0.0294 -0.26504,-0.0229 -0.0893,-2e-5 -0.17868,-5e-5 -0.26801,-1.7e-4 -0.0893,-1.2e-4 -0.17854,-4e-4 -0.26781,0 -0.086,7.3e-4 -0.17218,10e-4 -0.25769,0.0112 -0.078,0.011 -0.15308,0.034 -0.23104,0.0442 -0.091,0.0102 -0.18087,0.0302 -0.27246,0.034 -0.0998,-10e-5 -0.19955,-3e-4 -0.29932,-3.5e-4 -0.10417,9e-5 -0.20833,2.6e-4 -0.3125,2e-5 -0.10363,1.2e-4 -0.20726,3.6e-4 -0.31089,2.4e-4 -0.10203,2.3e-4 -0.20406,7.5e-4 -0.30609,-4.4e-4 -0.11097,-0.001 -0.22205,-0.003 -0.33255,-0.0147 -0.12805,-0.0133 -0.25512,-0.0361 -0.38401,-0.0402 -0.17089,-0.0111 -0.34104,-0.0295 -0.51178,-0.0421 -0.19775,-0.006 -0.395,-0.0202 -0.59226,-0.0351 -0.18776,-0.008 -0.37583,-0.003 -0.56357,-0.0127 -0.16937,-0.009 -0.33813,-0.0249 -0.5074,-0.0345 -0.12433,4.4e-4 -0.24866,6.2e-4 -0.37299,9.2e-4 -0.0937,1.7e-4 -0.18737,5.6e-4 -0.28105,3.5e-4 -0.0893,0 -0.17857,0 -0.26786,0 -0.0892,0 -0.17848,0 -0.26772,1e-5 -0.0893,0 -0.1785,0 -0.26775,-2e-5 -0.0919,-2e-5 -0.18375,-6e-5 -0.27562,-1.9e-4 -0.10208,-1.3e-4 -0.20416,-4.1e-4 -0.30623,1.4e-4 -0.0968,-7e-5 -0.19354,-2.1e-4 -0.29031,-3.1e-4 -0.0987,-10e-6 -0.19745,5.1e-4 -0.29618,1.8e-4 -0.10177,-1.3e-4 -0.20353,-4.1e-4 -0.30529,1.3e-4 -0.0986,-9e-5 -0.19714,-2.6e-4 -0.29571,-5.4e-4 -0.11693,-2.7e-4 -0.23386,-2.9e-4 -0.35079,4.9e-4 -0.0315,1.1e-4 -0.0599,1.5e-4 -0.0913,4.8e-4 -0.0126,1.3e-4 -0.0476,0.009 -0.0378,5.4e-4 0.63623,-0.52325 0.29642,-0.39989 0.53538,-0.39074 0.0856,10e-4 0.17114,8e-5 0.2567,5.4e-4 0.0933,4e-5 0.1865,1.1e-4 0.27975,2.4e-4 0.10017,1.2e-4 0.20035,7e-5 0.30052,-2.6e-4 0.0892,0 0.17841,-1e-5 0.26761,0 0.0899,0 0.17969,10e-6 0.26953,7e-5 0.0968,7e-5 0.1936,2.1e-4 0.2904,2.9e-4 0.0962,-2e-5 0.19238,-5.6e-4 0.28856,-4.5e-4 0.0893,-7e-5 0.17856,-2.2e-4 0.26784,-2.2e-4 0.0895,1.4e-4 0.17905,1.5e-4 0.26847,0.004 0.0911,0.005 0.18166,0.0151 0.2714,0.0319 0.0961,0.0133 0.19305,0.008 0.28981,0.013 0.1049,0.005 0.20942,0.0139 0.31302,0.0317 0.0951,0.0117 0.19036,0.009 0.28598,0.008 0.0894,-1.6e-4 0.17871,-5e-4 0.26807,-1.3e-4 0.0881,7.7e-4 0.17643,10e-4 0.26386,0.0132 0.0813,0.0133 0.15869,0.0384 0.23772,0.061 0.0822,0.0153 0.16435,0.0233 0.24756,0.0309 0.0794,0.0135 0.15695,0.0371 0.23772,0.0419 0.1005,0.0141 0.19826,0.0393 0.2973,0.0608 0.0933,0.0145 0.18658,0.0234 0.28067,0.031 0.0868,0.0126 0.17225,0.0336 0.25988,0.0404 0.0799,0.012 0.1562,0.0349 0.23292,0.0599 0.0869,0.0221 0.16881,0.0611 0.25771,0.0739 0.0767,0.01 0.15179,0.0293 0.2289,0.0338 0.0888,-8.3e-4 0.17769,-0.002 0.26612,-0.0106 0.0901,-0.0101 0.17903,-0.0301 0.26968,-0.0341 0.0892,0 0.17834,0 0.26751,-2e-5 0.0895,-10e-6 0.17903,-4e-5 0.26854,-9e-5 0.0976,-3e-5 0.19511,-9e-5 0.29266,5.4e-4 0.11115,9e-4 0.22249,9.5e-4 0.33336,0.01 0.0909,0.01 0.18052,0.0285 0.27166,0.0353 0.10479,0.003 0.20983,0.008 0.31315,0.0272 0.10164,0.021 0.201,0.0516 0.30322,0.0702 0.0752,0.0134 0.1504,0.0303 0.22655,0.0359 0.0903,1.2e-4 0.18057,3.7e-4 0.27086,-5e-5 0.0957,-7.7e-4 0.19154,-0.002 0.28691,-0.0105 0.0825,-0.009 0.16298,-0.0317 0.24601,-0.0347 0.0896,3e-5 0.17926,-2e-4 0.26878,0.004 0.0904,0.006 0.18051,0.0157 0.26804,0.0401 0.0848,0.0211 0.17137,0.034 0.25533,0.0588 0.0932,0.0174 0.18799,0.0331 0.28304,0.0316 0.10645,1.8e-4 0.21289,5.1e-4 0.31933,6.1e-4 0.1073,-1.1e-4 0.21459,-8.9e-4 0.32188,-10e-5 0.11451,3.5e-4 0.22902,4.3e-4 0.34353,-1.7e-4 0.11744,-10e-4 0.23498,-0.004 0.35201,-0.0144 0.12001,-0.0119 0.23945,-0.034 0.3605,-0.03 0.10822,-5e-5 0.21644,-6.9e-4 0.32467,-2.9e-4 0.0983,1.6e-4 0.19661,-3e-5 0.29491,-1.4e-4 0.0996,-3.3e-4 0.19913,-10e-4 0.29859,-0.006 0.13642,-0.007 0.27276,-0.0176 0.40804,-0.0371 0,0 -0.53118,0.3961 -0.53118,0.3961 z"
               inkscape:connector-curvature="0" />
            <path
               style="fill:#b8b8cb;fill-opacity:1;stroke:none"
               id="path3919"
               d="m 317.84328,488.14369 c 0.0104,0.10721 0.0173,0.23806 0.10818,0.31059 0.0372,0.008 0.0529,-0.0202 0.0804,-0.0387 0,0 -0.52049,0.41399 -0.52049,0.41399 l 0,0 c -0.047,0.0143 -0.0864,0.005 -0.12474,-0.0275 -0.0885,-0.0956 -0.11569,-0.2238 -0.12999,-0.35027 0,0 0.5866,-0.30814 0.5866,-0.30814 z"
               inkscape:connector-curvature="0" />
            <path
               style="fill:#b8b8cb;fill-opacity:1;stroke:none"
               id="path3921"
               d="m 317.5208,488.3144 c 0.0203,-0.13371 0.0346,-0.26809 0.0258,-0.40323 -4.4e-4,-0.0969 -0.0379,-0.18292 -0.073,-0.2707 -0.0226,-0.0501 -0.0113,-0.0245 -0.0338,-0.0769 0,0 0.57779,-0.32446 0.57779,-0.32446 l 0,0 c 0.0222,0.0521 0.0106,0.0259 0.035,0.0785 0.0362,0.0942 0.0782,0.18662 0.0796,0.28994 0.0105,0.13865 -0.002,0.27532 -0.0173,0.41338 0,0 -0.59408,0.29345 -0.59408,0.29345 z"
               inkscape:connector-curvature="0" />
            <path
               style="fill:#b8b8cb;fill-opacity:1;stroke:none"
               id="path3923"
               d="m 301.72721,486.22405 c 0.0133,0.13879 0.0269,0.27753 0.0338,0.41682 0.006,0.12942 0.006,0.259 0.006,0.38851 -0.003,0.12308 0.015,0.24539 0.0418,0.36518 0.0322,0.0966 0.0594,0.19465 0.0899,0.29178 0.0284,0.0938 0.0807,0.17641 0.12219,0.26427 0.034,0.0796 0.0692,0.15672 0.0879,0.24158 0.0175,0.083 0.0108,0.16823 0.0205,0.25185 0.01,0.0742 0.0464,0.13864 0.0851,0.2012 0.06,0.0824 0.15798,0.10319 0.24778,0.13939 0.14505,0.0407 0.2876,0.0908 0.43351,0.12835 0.11192,0.0466 0.23449,0.0541 0.34927,0.0882 0.0748,0.0151 0.13993,0.0538 0.21396,0.0712 0.0703,0.0176 0.13716,0.0417 0.20985,0.0513 0.11307,0.0122 0.22391,0.0117 0.33499,-0.0129 0.13857,-0.0302 0.27027,-0.0806 0.40117,-0.13423 0.24773,-0.0976 0.73606,-0.39364 -0.25724,0.17513 0.0901,-0.0503 0.17424,-0.10514 0.23997,-0.18536 0.0537,-0.0738 0.0884,-0.15967 0.11336,-0.24691 0.0231,-0.0944 0.0242,-0.192 0.0258,-0.28861 7.7e-4,-0.0948 5e-5,-0.18966 -3.1e-4,-0.28448 -3.3e-4,-0.0896 -4.1e-4,-0.17915 -4.6e-4,-0.26873 9.3e-4,-0.1105 10e-4,-0.221 7.7e-4,-0.3315 -3.6e-4,-0.0976 -5.8e-4,-0.19527 -7e-4,-0.29291 0.002,-0.059 0.002,-0.13692 -0.0752,-0.12653 -0.20188,0.11461 -0.49014,0.27263 0.44722,-0.25497 0.014,-0.008 -0.027,0.0175 -0.0399,0.027 -0.0142,0.0104 -0.0276,0.0218 -0.0413,0.0326 -0.0739,0.0717 -0.14914,0.14221 -0.22094,0.21602 -0.0659,0.0565 -0.10403,0.13003 -0.14715,0.20297 -0.0436,0.0621 -0.0705,0.13359 -0.0996,0.20318 -0.0274,0.0773 -0.0484,0.1562 -0.0688,0.2355 -0.0261,0.0696 -0.0426,0.14133 -0.0498,0.21525 -0.0222,0.24805 10e-4,0.071 -0.61271,0.31332 -0.0136,0.005 -0.0163,-0.0243 -0.023,-0.0373 -0.0221,-0.0426 -0.0351,-0.0909 -0.0527,-0.13549 -0.0492,-0.11362 -0.0779,-0.234 -0.12395,-0.34869 -0.0538,-0.10711 -0.10755,-0.21486 -0.16997,-0.31722 -0.0423,-0.0736 -0.0775,-0.15031 -0.13413,-0.21421 -0.0576,-0.0414 -0.0907,-0.10328 -0.15651,-0.13297 -0.0754,-0.0266 -0.14841,-0.0167 -0.22156,0.0109 -0.21274,0.0731 -0.52407,0.2765 0.44387,-0.26552 0.012,-0.007 -0.0235,0.0143 -0.0342,0.0229 -0.0294,0.0238 -0.0365,0.0368 -0.0595,0.0669 -0.0514,0.0884 -0.061,0.19001 -0.0672,0.28995 0.007,0.13784 0.0806,0.25007 0.16792,0.35117 0.0835,0.0914 0.18406,0.16433 0.28126,0.23992 0.0684,0.0618 0.15443,0.0852 0.23537,0.12254 0.0719,0.0376 0.14638,0.0684 0.22288,0.0965 0.0802,0.0255 0.1569,0.061 0.23564,0.091 0.0834,0.0239 0.16901,0.0333 0.25345,0.0529 0.052,0.0108 0.10783,0.0233 0.16025,0.006 0.0101,-0.003 0.0371,-0.0209 0.0278,-0.0157 -0.18227,0.10238 -0.3645,0.20484 -0.54675,0.30726 0.062,-0.0363 0.0646,-0.11601 0.0634,-0.18061 -0.004,-0.0701 -0.0365,-0.12928 -0.0972,-0.16495 -0.0567,-0.0458 -0.12795,-0.0671 -0.19256,-0.0996 -0.0992,-0.0362 -0.19978,-0.0706 -0.3007,-0.10261 -0.11343,-0.0342 -0.23214,-0.041 -0.34977,-0.0455 -0.10418,-0.003 -0.20841,-0.002 -0.31261,-0.001 -0.10246,-1.6e-4 -0.20492,2.8e-4 -0.30738,5.1e-4 -0.0909,0.003 -0.17875,0.003 -0.26736,-0.0174 -0.077,-0.0137 -0.15234,-0.0217 -0.22743,-0.0436 -0.0753,-0.0206 -0.15347,-0.0239 -0.23099,-0.0267 -0.0869,10e-4 -0.17059,1.2e-4 -0.25525,-0.0193 -0.0681,-0.0245 -0.1179,-0.0741 -0.1726,-0.11851 -0.0558,-0.0434 -0.0862,-0.10642 -0.12975,-0.16002 -0.048,-0.0618 -0.0872,-0.12996 -0.13901,-0.18873 -0.0393,-0.0513 -0.0786,-0.1009 -0.14071,-0.12311 -0.0728,-0.0204 -0.14239,-0.0173 -0.2144,5.7e-4 -0.21767,0.10627 -0.0621,0.0312 0.50536,-0.28723 0.0109,-0.006 -0.0217,0.0127 -0.0323,0.0194 -0.0312,0.0197 -0.0518,0.0387 -0.0736,0.0684 -0.0391,0.0639 -0.0652,0.13409 -0.0949,0.20257 -0.0407,0.0662 -0.0602,0.13841 -0.0706,0.21464 -0.008,0.0805 -0.0128,0.16129 0.002,0.24115 0.014,0.0799 0.0347,0.15847 0.0594,0.23572 0.0415,0.0869 0.0899,0.17231 0.14463,0.25173 0.0404,0.0607 0.0856,0.11989 0.13914,0.16968 0.0395,0.0506 0.099,0.0769 0.14671,0.11854 0.056,0.0386 0.0974,0.0974 0.1285,0.1572 0.04,0.0564 0.059,0.12306 0.0853,0.18622 -0.0495,-0.0298 0.0188,0.0306 0.0162,0.0219 -0.0739,-0.24968 -0.44422,0.21523 -0.57403,0.28843 -0.007,0.004 0.0104,-0.0112 0.0142,-0.0177 0.005,-0.009 0.008,-0.0181 0.012,-0.0272 0.0249,-0.0784 0.0276,-0.16141 0.0306,-0.24296 0.002,-0.0898 0.002,-0.17962 0.002,-0.26943 -0.002,-0.0981 -0.002,-0.19556 0.0109,-0.29297 0.0155,-0.0953 0.0249,-0.19136 0.0299,-0.28778 -2.2e-4,-0.0959 -0.0369,-0.0323 -0.0838,-0.007 -0.201,0.0957 -0.49262,0.26504 0.48198,-0.27969 0.0105,-0.006 -0.0183,0.0155 -0.0267,0.0241 -0.0211,0.0217 -0.0291,0.0352 -0.0465,0.0602 -0.0512,0.0591 -0.0706,0.12965 -0.0814,0.20527 -0.009,0.0865 -0.008,0.17357 -0.008,0.26039 0.0102,0.0707 -0.0179,0.1529 0.009,0.22053 -0.0495,-0.22635 0.006,0.002 -0.5754,0.28089 -0.009,0.004 0.007,-0.0179 0.009,-0.0272 0.009,-0.0367 0.01,-0.0753 0.0116,-0.11281 0.003,-0.0886 0.002,-0.17728 0.001,-0.26591 -4e-4,-0.0897 -5.5e-4,-0.17937 -6.3e-4,-0.26906 -6.6e-4,-0.0835 0.005,-0.16681 -0.0103,-0.24926 -0.0153,-0.0637 -0.0634,-0.0946 -0.10789,-0.13707 -0.0547,-0.0481 -0.0838,-0.11842 -0.13701,-0.16681 -0.0504,-0.0434 -0.11455,-0.0553 -0.1726,-0.0829 -0.0105,-0.004 -0.0215,-0.007 -0.0315,-0.0126 -0.0934,-0.0496 0.0268,0.006 -0.0589,-0.0367 -0.0304,-0.0151 -0.0617,-0.0218 -0.092,-0.0376 -0.0651,-0.0327 -0.13791,-0.0378 -0.20938,-0.0421 -0.0566,0.005 -0.0948,0.0451 -0.14208,0.0705 -0.0127,0.007 -0.0515,0.0257 -0.039,0.0185 0.17728,-0.10295 0.35576,-0.20381 0.53364,-0.30571 -0.0572,0.0359 -0.11682,0.0708 -0.15663,0.12644 -0.0346,0.0699 -0.0344,0.14977 -0.0367,0.22605 -0.004,0.0781 0.0188,0.15386 0.0305,0.23052 0.0139,0.0705 0.039,0.13403 0.0759,0.19517 0.0411,0.05 0.0937,0.0866 0.15601,0.10405 0.0699,0.0252 0.12056,0.0703 0.16626,0.12764 0.0355,0.0639 0.0652,0.13171 0.0848,0.2023 0.004,0.01 0.006,0.0199 0.0107,0.0291 10e-4,0.003 0.0169,0.0307 0.0283,0.028 0.005,-0.001 0.0112,-0.0146 0.007,-0.0124 -0.18429,0.0954 -0.77337,0.41391 -0.55,0.29317 0.0474,-0.0647 0.0695,-0.14583 0.10021,-0.21962 0.0358,-0.0829 0.0487,-0.17156 0.0558,-0.26075 0.005,-0.0887 0.005,-0.17772 0.004,-0.26659 -8.1e-4,-0.0835 0.005,-0.16678 -0.0108,-0.24918 -0.007,-0.018 -0.0158,-0.053 -0.0436,-0.045 -0.015,0.004 -0.0441,0.0431 -0.0304,0.0356 0.18508,-0.10099 0.36538,-0.21051 0.54807,-0.31576 -0.0522,0.0487 -0.0735,0.10888 -0.0863,0.17727 -0.0108,0.0812 0.002,0.16561 0.0223,0.2446 0.0227,0.0605 0.0312,0.12467 0.0487,0.18648 0,0 -0.5823,0.31834 -0.5823,0.31834 l 0,0 c -0.0194,-0.062 -0.0253,-0.12727 -0.0489,-0.18825 -0.0246,-0.086 -0.038,-0.17971 -0.0349,-0.26881 0.008,-0.0743 0.0179,-0.15255 0.0685,-0.21129 0.0884,-0.054 0.58714,-0.58454 0.7239,-0.24597 0.0182,0.0865 0.0175,0.17286 0.0158,0.26113 2.4e-4,0.0902 9.3e-4,0.1805 -0.003,0.27069 -0.005,0.0948 -0.0141,0.18997 -0.0471,0.2798 -0.0306,0.0784 -0.065,0.15516 -0.0889,0.236 -0.10875,0.26921 -0.58397,0.54994 -0.69152,0.23973 -0.0152,-0.062 -0.0414,-0.12077 -0.0712,-0.17692 -0.0408,-0.0475 -0.0863,-0.0795 -0.14687,-0.0984 -0.0709,-0.0316 -0.13353,-0.0789 -0.17947,-0.14222 -0.0414,-0.0689 -0.0708,-0.13962 -0.0885,-0.21848 -0.0108,-0.0804 -0.036,-0.15906 -0.0349,-0.24042 0.001,-0.0843 0.001,-0.16985 0.0225,-0.252 0.026,-0.0732 0.0759,-0.12224 0.14378,-0.15961 0.20047,-0.11635 0.40078,-0.23298 0.60141,-0.34905 0.0634,-0.0367 0.12795,-0.0696 0.20369,-0.0596 0.0776,0.009 0.15376,0.0235 0.22351,0.0605 0.0623,0.0251 0.11995,0.0576 0.18106,0.085 0.068,0.025 0.13169,0.0556 0.18645,0.10442 0.0486,0.0523 0.082,0.11646 0.13553,0.16491 0.0554,0.0505 0.10746,0.0978 0.12819,0.17321 0.0181,0.0866 0.0172,0.17291 0.0152,0.2612 5e-5,0.0896 1.3e-4,0.17926 4.9e-4,0.26888 3.7e-4,0.0893 10e-4,0.17867 3.4e-4,0.26801 -3e-4,0.015 -0.005,0.15536 -0.009,0.15838 -0.58267,0.37626 -0.4535,0.52926 -0.6098,0.32378 -0.0294,-0.0779 -0.0134,-0.16232 -0.0175,-0.24391 -2.6e-4,-0.089 -10e-4,-0.17806 0.004,-0.26692 0.007,-0.0829 0.0174,-0.16697 0.066,-0.23721 0.0208,-0.0255 0.0397,-0.0791 0.0672,-0.0965 0.26799,-0.16843 0.4133,-0.28976 0.65595,-0.38087 0.0875,-0.024 0.14938,0.0299 0.15249,0.11989 -0.004,0.0984 -0.0114,0.19663 -0.0281,0.2938 -0.0146,0.0946 -0.0173,0.18831 -0.0139,0.28403 1.4e-4,0.0904 5.2e-4,0.18087 -8.7e-4,0.2713 -0.002,0.0865 -0.004,0.17341 -0.0207,0.2586 -0.002,0.0103 -0.0135,0.0625 -0.0151,0.0636 -0.23874,0.15556 -0.50351,0.55457 -0.63356,0.27882 -0.0255,-0.0616 -0.044,-0.12616 -0.0827,-0.18133 -0.0271,-0.0531 -0.0656,-0.0998 -0.11482,-0.13385 -0.0516,-0.0392 -0.10876,-0.0724 -0.14972,-0.12387 -0.0537,-0.0558 -0.10304,-0.11629 -0.14391,-0.18217 -0.0565,-0.0856 -0.10852,-0.1752 -0.15385,-0.26709 -0.0275,-0.079 -0.0492,-0.16037 -0.0644,-0.2426 -0.0181,-0.086 -0.0179,-0.17177 -0.0106,-0.25938 0.007,-0.0819 0.0174,-0.16447 0.0596,-0.23678 0.0401,-0.0637 0.0525,-0.1398 0.0944,-0.20263 0.0198,-0.0518 0.0422,-0.0929 0.092,-0.12144 0.60575,-0.34677 0.37821,-0.29378 0.64368,-0.35075 0.0807,-0.009 0.16335,7.4e-4 0.23843,0.0326 0.0638,0.0362 0.11168,0.0889 0.15539,0.14734 0.05,0.0611 0.0917,0.12827 0.14015,0.19062 0.0396,0.0513 0.0709,0.10771 0.12341,0.14796 0.0458,0.0394 0.0922,0.0789 0.15336,0.0913 0.0824,0.0134 0.16601,0.006 0.24912,0.012 0.081,0.005 0.16192,0.014 0.23997,0.0378 0.0739,0.0184 0.15048,0.0216 0.22452,0.0399 0.0855,0.0137 0.17221,0.006 0.25846,0.008 0.10252,0 0.20503,5e-5 0.30754,-7.1e-4 0.10432,4e-5 0.20869,1.9e-4 0.3129,0.005 0.12165,0.008 0.24362,0.0201 0.35972,0.0597 0.10319,0.0341 0.20816,0.0648 0.30781,0.10823 0.0694,0.0311 0.14107,0.0592 0.20009,0.10858 0.0679,0.0551 0.11623,0.12682 0.12493,0.2158 0.0102,0.0818 0.003,0.16777 -0.0328,0.24309 -0.39781,0.22769 -0.46467,0.4039 -0.80414,0.32308 -0.0869,-0.0189 -0.17668,-0.0263 -0.25951,-0.0609 -0.0779,-0.0313 -0.15555,-0.0633 -0.23485,-0.0907 -0.0765,-0.0301 -0.15153,-0.0624 -0.22531,-0.0986 -0.0872,-0.0354 -0.16996,-0.0765 -0.2427,-0.13766 -0.1002,-0.0782 -0.20033,-0.15805 -0.28528,-0.25313 -0.0968,-0.11484 -0.17443,-0.24125 -0.19475,-0.39328 0.004,-0.10819 0.0107,-0.21722 0.0525,-0.31869 0.13384,-0.28697 0.4875,-0.40611 0.78006,-0.49561 0.0873,-0.0149 0.1725,-0.0134 0.25244,0.0299 0.0648,0.042 0.1098,0.10294 0.16826,0.15275 0.0577,0.068 0.095,0.14771 0.13731,0.22573 0.0625,0.10628 0.11958,0.2158 0.17426,0.32627 0.0474,0.11417 0.0742,0.23502 0.12518,0.34794 0.0171,0.0404 0.0297,0.0852 0.0494,0.12429 0.004,0.009 0.0242,0.0194 0.016,0.0249 -0.17786,0.11767 -0.75463,0.46045 -0.54923,0.32815 0.01,-0.077 0.0147,-0.15532 0.0453,-0.22781 0.0302,-0.076 0.0387,-0.16067 0.0672,-0.23767 0.024,-0.075 0.0586,-0.14731 0.0935,-0.21757 0.0521,-0.0696 0.0731,-0.15777 0.14539,-0.21255 0.0666,-0.0807 0.15012,-0.14456 0.21747,-0.22456 0.21002,-0.18959 0.34349,-0.22665 0.68108,-0.4177 0.0137,-0.008 0.0565,-0.0187 0.0731,-0.019 0.0128,-1.9e-4 0.0254,0.003 0.0381,0.005 0.0883,0.0385 0.12728,0.10808 0.1198,0.20505 -1.2e-4,0.0979 -3.5e-4,0.19575 -7.1e-4,0.29363 -3e-4,0.11022 -1.8e-4,0.22044 8.1e-4,0.33066 3e-5,0.0895 7e-5,0.17911 2.5e-4,0.26866 1.8e-4,0.0953 5.7e-4,0.1906 -5e-5,0.28589 -10e-4,0.1008 -4e-4,0.20244 -0.0182,0.302 -0.0208,0.0951 -0.0561,0.1859 -0.10282,0.27132 -0.062,0.0887 -0.13153,0.16121 -0.23154,0.20835 -0.29518,0.17102 -0.56377,0.34824 -0.87638,0.47063 -0.1325,0.0527 -0.26878,0.0972 -0.40926,0.12308 -0.11718,0.0156 -0.23529,0.0154 -0.35245,-0.002 -0.0728,-0.0146 -0.14204,-0.0404 -0.21435,-0.057 -0.0709,-0.0232 -0.13847,-0.0559 -0.21203,-0.0712 -0.11615,-0.0269 -0.23246,-0.0523 -0.3455,-0.0912 -0.14693,-0.0419 -0.29328,-0.0866 -0.43859,-0.13358 -0.10441,-0.0399 -0.20883,-0.0753 -0.27399,-0.17281 -0.0438,-0.0697 -0.084,-0.143 -0.0985,-0.22501 -0.0141,-0.0822 -0.005,-0.16624 -0.0187,-0.2487 -0.0149,-0.0807 -0.0482,-0.15301 -0.079,-0.22862 -0.0418,-0.091 -0.0969,-0.17547 -0.1267,-0.27192 -0.0306,-0.0991 -0.0574,-0.1992 -0.0909,-0.29743 -0.0276,-0.12408 -0.0492,-0.2506 -0.048,-0.37813 3.2e-4,-0.12876 -7e-5,-0.25755 -0.004,-0.38626 -0.006,-0.13721 -0.014,-0.27457 -0.0348,-0.41047 0,0 0.5866,-0.30813 0.5866,-0.30813 z"
               inkscape:connector-curvature="0" />
            <path
               style="fill:#b8b8cb;fill-opacity:1;stroke:none"
               id="path3925"
               d="m 318.87007,487.34012 c 0.007,0.13777 0.0364,0.27246 0.0593,0.40803 0.0171,0.10047 0.0229,0.20222 0.0257,0.30393 -0.004,0.0803 -0.0218,0.15975 -0.0372,0.23863 -0.024,0.0833 -0.0378,0.1683 -0.0454,0.25444 -0.003,0.0767 -0.0363,0.14361 -0.0669,0.21198 -0.0326,0.0502 -0.0528,0.10508 -0.0616,0.16408 -0.46146,0.33764 -0.70249,0.43758 -0.56495,0.10713 0.0235,-0.0654 0.051,-0.12957 0.072,-0.19582 0.0223,-0.0722 0.0521,-0.14182 0.0773,-0.21305 0.0225,-0.0702 0.0565,-0.13555 0.10248,-0.19307 0.0431,-0.0481 0.0811,-0.0995 0.11733,-0.15295 0.0444,-0.0479 0.068,-0.10933 0.094,-0.16823 0.0874,-0.24716 -0.12911,-0.0303 0.61818,-0.30387 0.003,-0.001 0.0109,0.11313 0.0111,0.12017 3e-5,0.0858 0.003,0.17179 -0.0115,0.25659 -0.0252,0.0772 -0.0477,0.156 -0.0768,0.23194 -0.012,0.0331 -0.0311,0.0628 -0.0481,0.0935 0,0 -0.60446,0.2748 -0.60446,0.2748 l 0,0 c 0.0133,-0.032 0.0269,-0.0632 0.0506,-0.0893 0.0292,-0.0736 0.0495,-0.14932 0.0816,-0.22195 0.0197,-0.0804 0.0208,-0.16042 0.0185,-0.24323 -8e-5,-0.007 -0.008,-0.10367 -0.005,-0.10544 0.19158,-0.11624 0.3925,-0.21634 0.58875,-0.32451 -0.0177,0.0122 -0.009,0.003 -0.0211,0.0312 -0.02,0.0636 -0.0517,0.13084 -0.0846,0.18836 -0.0467,0.0453 -0.0669,0.10987 -0.11869,0.15026 -0.0404,0.0564 -0.0897,0.10527 -0.11307,0.17305 -0.0204,0.0718 -0.048,0.1417 -0.0779,0.20986 -0.0156,0.0714 -0.0482,0.13439 -0.0673,0.20452 -0.13915,0.3094 0.0378,0.15168 -0.64108,0.45667 0.0249,-0.0578 0.0175,-0.12753 0.0572,-0.18027 0.0397,-0.0542 0.0641,-0.12179 0.0812,-0.1862 0.006,-0.0889 0.0148,-0.1779 0.0403,-0.26369 0.0211,-0.073 0.0242,-0.15037 0.0453,-0.22372 -0.002,-0.0993 -0.005,-0.19873 -0.0192,-0.29715 -0.0204,-0.13635 -0.0492,-0.27129 -0.063,-0.40858 0,0 0.5866,-0.30813 0.5866,-0.30813 z"
               inkscape:connector-curvature="0" />
            <path
               style="fill:#ffffff;fill-opacity:1;stroke:#000000;stroke-width:0.13544191;stroke-linecap:butt;stroke-linejoin:miter;stroke-miterlimit:4;stroke-opacity:1;stroke-dasharray:none"
               d="m 309.43859,487.37418 -0.22242,-10.51826 c 5.82004,-2.99896 5.78297,2.45766 5.78297,2.45766 l 0.14828,7.95819 -12.01078,-0.11703 -0.29657,-8.07522 c 0,0 0.51898,-5.31033 6.35756,-2.22361"
               id="path3965"
               inkscape:connector-curvature="0"
               sodipodi:nodetypes="ccccccc" />
            <path
               style="fill:#000000;fill-opacity:1;stroke:#000000;stroke-width:0.11609307;stroke-linecap:butt;stroke-linejoin:miter;stroke-miterlimit:4;stroke-opacity:1;stroke-dasharray:none"
               d="m 309.1791,481.42017 c 0,0 -2.81734,-0.76072 -3.26219,1.43364 l 0,4.21316 3.41047,0.17555 z"
               id="path3973"
               inkscape:connector-curvature="0" />
            <path
               style="fill:#000000;fill-opacity:1;stroke:#000000;stroke-width:0.11609307;stroke-linecap:butt;stroke-linejoin:miter;stroke-miterlimit:4;stroke-opacity:1;stroke-dasharray:none"
               d="m 309.15684,481.41078 c 0,0 3.04786,-0.76071 3.52911,1.43364 l 0,4.21316 -3.35857,0.0679 z"
               id="path3973-8"
               inkscape:connector-curvature="0" />
            <path
               style="fill:#000000;fill-opacity:1;stroke:#000000;stroke-width:0.19348845px;stroke-linecap:butt;stroke-linejoin:miter;stroke-opacity:1"
               d="m 304.88247,500.23219 c 0,0 3.49854,-3.20005 6.31345,-2.02031 3.19774,1.3402 3.34033,3.61716 3.34033,3.61716 0,0 -1.84413,4.0916 -4.74592,4.35946 -3.44832,-0.50364 -4.54968,-2.91874 -5.54052,-4.99846 z"
               id="path4006"
               inkscape:connector-curvature="0"
               sodipodi:nodetypes="cscccc" />
          </g>
        </g>
      </g>
      <g
         id="g4221">
        <path
           style="fill:#fbebc6;fill-opacity:1;stroke:#000000;stroke-width:1px;stroke-linecap:butt;stroke-linejoin:miter;stroke-opacity:1"
           d="m 102.47489,187.94849 574.55743,-3.78911 0.89914,107.99064 -573.65824,-1.89456 -89.915117,-55.88988 z"
           id="path3015"
           inkscape:connector-curvature="0"
           sodipodi:nodetypes="cccccc" />
        <path
           style="fill:#fbe09e;stroke:#000000;stroke-width:1px;stroke-linecap:butt;stroke-linejoin:miter;stroke-opacity:1;fill-opacity:1"
           d="m 102.47489,187.94855 c 0,0 21.57965,19.89301 6.29405,35.04958 -15.28554,15.15657 -0.89909,30.31314 -0.89909,30.31314 0,0 17.98297,42.62792 -5.39491,35.04958 L 13.637059,234.13862 z"
           id="path3017"
           inkscape:connector-curvature="0"
           sodipodi:nodetypes="cscc" />
        <path
           style="fill:#000000;fill-opacity:1;stroke:#000000;stroke-width:1px;stroke-linecap:butt;stroke-linejoin:miter;stroke-opacity:1"
           d="m 30.54284,224.89269 c 0,0 7.764196,-6.7683 18.732974,-7.50062 18.227636,-1.21693 13.426077,49.38475 -7.044006,36.86653 -27.61434,-16.88721 -29.671992,-19.89302 -29.671992,-19.89302 z"
           id="path3021"
           inkscape:connector-curvature="0"
           sodipodi:nodetypes="csscc" />
        <path
           style="fill:#fb0000;fill-opacity:1;stroke:#000000;stroke-width:1px;stroke-linecap:butt;stroke-linejoin:miter;stroke-opacity:1"
           d="m 678.83061,187.94855 33.26857,0 c 0,0 23.18674,22.16904 21.57964,49.25887 -1.79828,30.31319 -0.89914,49.25887 -21.57964,53.04804 -20.68046,3.78917 -35.966,1.89456 -35.966,1.89456 z"
           id="path3791"
           inkscape:connector-curvature="0"
           sodipodi:nodetypes="ccsscc" />
        <text
           xml:space="preserve"
           style="font-size:127.12220001px;font-style:normal;font-variant:normal;font-weight:normal;font-stretch:normal;line-height:125%;letter-spacing:0px;word-spacing:0px;fill:#000000;fill-opacity:1;stroke:none;font-family:Calibri;-inkscape-font-specification:Calibri"
           x="114.99863"
           y="280.30075"
           id="text4181"
           sodipodi:linespacing="125%"
           transform="scale(1.0055689,0.99446196)"
           inkscape:export-filename="G:\wilskracht\img\logo.png"
           inkscape:export-xdpi="90"
           inkscape:export-ydpi="90"><tspan
             sodipodi:role="line"
             id="tspan4183"
             x="114.99863"
             y="280.30075"
             style="fill:#337ab7;fill-opacity:1">Wilskracht</tspan></text>
      </g>
    </g>
  </g>
</svg>
